<svg xmlns="http://www.w3.org/2000/svg" data-name="Layer 1" viewBox="0 0 700 550"><path d="M403.94543,112.65263s4.48568-4.818,5.31637-8.97137,7.97454-7.97455,11.29727-7.14386c0,0-2.65818,7.97454.99682,10.46659a103.86779,103.86779,0,0,0,10.13432,5.64864s2.49205-8.30682,5.64864-6.8116,5.64864,2.492,5.4825,9.30364l7.14386,5.81478s2.49205-22.59455-.99681-26.58183-6.147-7.31-11.62955-6.64545c0,0-5.15023-4.31955-14.1216-1.99364S411.92,89.06126,410.757,91.38717s-4.31954,8.14068-6.147,10.13432S399.18791,112.226,403.94543,112.65263Z"/><path d="M409.92631 112.15424a8.07951 8.07951 0 012.75693-2.41049 6.54294 6.54294 0 013.55626-.91227c-.54373.3207-1.062.59111-1.5784.87157l-1.5329.84864A31.61453 31.61453 0 01409.92631 112.15424zM416.24015 118.55977a.92428.92428 0 01-.81871-.495l-1.82734-3.48814a.92325.92325 0 111.63553-.85707l1.82735 3.48814a.92369.92369 0 01-.81683 1.352zM419.14642 131.23258a9.854 9.854 0 003.40072-2.502 13.54837 13.54837 0 001.23647-1.69986c.19678-.298.35362-.622.549-.93356.17655-.32023.33537-.65215.546-.97706a8.7683 8.7683 0 01-.12052 1.13308 8.063 8.063 0 01-.32906 1.09706 6.98033 6.98033 0 01-1.18881 1.989 6.1661 6.1661 0 01-1.85431 1.41683A4.26673 4.26673 0 01419.14642 131.23258z"/><path d="M438.76013 119.792a28.84609 28.84609 0 01.31006 4.95034 25.10442 25.10442 0 01-.55286 4.98426 20.68984 20.68984 0 01-1.733 4.77 15.10111 15.10111 0 01-1.34372 2.18266 9.29836 9.29836 0 01-1.84665 1.92676l-.04912.03766-.02567.01193a24.19079 24.19079 0 01-5.87594 1.71553c-.993.17029-1.985.33754-2.98692.42245a4.12828 4.12828 0 01-1.58244-.03485 3.4151 3.4151 0 01-1.43372-.75531 7.11907 7.11907 0 01-1.76717-2.58781 17.67554 17.67554 0 01-.942-2.93118 27.3479 27.3479 0 01-.71046-6.071l1.1425.811a14.436 14.436 0 01-3.62475.90993 5.81784 5.81784 0 01-2.07734-.12257 5.1629 5.1629 0 01-.57163-.21614 3.63835 3.63835 0 01-.55964-.36491 2.89059 2.89059 0 01-.48537-.54712 2.29585 2.29585 0 01-.28006-.69917 6.23488 6.23488 0 01-.00842-2.08606c.07907-.61824.18433-1.20676.30994-1.78337.24538-1.15156.49637-2.27108.66648-3.37165a7.11445 7.11445 0 00.00164-3.05259 1.42457 1.42457 0 00-.703-.891c-.21836-.12842-.56491-.29192-.823-.4587a8.12534 8.12534 0 01-.76356-.58339 11.572 11.572 0 01-3.43089-6.26985l.17731-.05147a16.05131 16.05131 0 001.70471 2.988 9.191 9.191 0 002.30751 2.34851 6.92885 6.92885 0 00.68023.39906l.74157.31953a2.95392 2.95392 0 011.59015 1.61916 8.23069 8.23069 0 01.32894 3.86357c-.12648 1.21238-.36128 2.37517-.558 3.51153-.09409.56771-.20222 1.12583-.2735 1.66337a4.68656 4.68656 0 00-.03474 1.39343c.01263.13544.14573.30783.52765.44093a4.045 4.045 0 001.39.12234 12.78389 12.78389 0 003.16932-.65917l1.18232-.38854-.03965 1.19975a40.64686 40.64686 0 00.21573 5.81139 14.78355 14.78355 0 00.58742 2.828 5.69618 5.69618 0 001.35916 2.42733 2.78527 2.78527 0 002.52821.71812 19.868 19.868 0 002.90066-.53075 21.14369 21.14369 0 005.35315-2.22453l-.07451.04935a11.78358 11.78358 0 001.36888-1.76348 23.23949 23.23949 0 001.16442-2.03109 25.038 25.038 0 001.76524-4.37982 53.62416 53.62416 0 001.50016-9.56151zM449.96524 120.9595c1.1239.83742 2.103 1.7284 3.16037 2.49588a7.65573 7.65573 0 003.485 1.66477 3.15248 3.15248 0 01-2.12681.05263 5.90357 5.90357 0 01-1.90717-.97613 8.52854 8.52854 0 01-1.51589-1.45635A6.98836 6.98836 0 01449.96524 120.9595z"/><path d="M433.18541,138.07155a3.72945,3.72945,0,0,1,.86514,1.72513,3.68884,3.68884,0,0,1-.03445,1.92979,3.68756,3.68756,0,0,1-.86507-1.72535A3.72967,3.72967,0,0,1,433.18541,138.07155Z"/><path d="M500.60414,175.13912l-.00082-.037.004.0269c-.75554-2.32278-1.44361-4.67035-2.0236-7.04669-.57824-2.37681-1.1015-4.76952-1.45086-7.20364a22.51121,22.51121,0,0,1-.29449-3.715,4.26062,4.26062,0,0,1,.13075-1.01121,1.34518,1.34518,0,0,1,.2924-.53473,1.96625,1.96625,0,0,1,.39637-.38807,6.15809,6.15809,0,0,1,1.76851-.876,31.81236,31.81236,0,0,1,7.33943-1.19764l-.47379.3366,5.4239-12.83819,5.523-12.77339.368.97a59.73272,59.73272,0,0,0-7.46821-2.45236q-3.83346-1.04315-7.71592-1.94009c-5.17349-1.185-10.36921-2.31646-15.59008-3.20417-1.30524-.20818-2.61025-.40958-3.91082-.55859-.64058-.06479-1.30349-.12865-1.91-.14152a9.1408,9.1408,0,0,0-1.85249.17988c-2.58921.45871-5.205.98128-7.80633,1.52022-5.20782,1.08185-10.40951,2.22359-15.60388,3.38311l.40046-.59882a18.1763,18.1763,0,0,1-1.77442,10.77272,24.98212,24.98212,0,0,1-2.94844,4.613,36.06767,36.06767,0,0,1-3.69112,4.00907c-1.31091,1.255-2.70177,2.418-4.11362,3.544a19.50483,19.50483,0,0,1-2.21646,1.63576,3.63008,3.63008,0,0,1-1.39209.43859,3.291,3.291,0,0,1-1.45694-.22292,5.61474,5.61474,0,0,1-2.19015-1.7726,13.99236,13.99236,0,0,1-1.4829-2.32067,27.58165,27.58165,0,0,1-1.98524-5.08555l.52163.11789-9.66524,11.40219c-1.61361,1.89915-3.22914,3.79527-4.879,5.66986-.79853.94619-1.75366,1.85027-2.456,2.75809a7.90674,7.90674,0,0,0-1.39735,3.2009,6.11341,6.11341,0,0,0-.10216.85916c-.01708.2669.01473.55953.02585.88233l.09146,1.86594.18292,3.73211.3659,7.464.73174,14.92892-.43829-.64538a22.70778,22.70778,0,0,0,6.46786,1.07508c2.25137.106,4.51742.10292,6.78546.066,4.53485-.11555,9.09035-.40748,13.60233-.85613l.06363-.00631a.81648.81648,0,0,1,.86431.58432l.44485,1.5298.3197,1.48559c.22661.99157.36772,1.97237.55047,2.95856q.497,2.9547.90852,5.908.83982,5.909,1.53086,11.82534,1.36524,11.83913,2.49482,23.69581l-.49906-.74431a1.80464,1.80464,0,0,0,.893.07274,7.31314,7.31314,0,0,0,1.25764-.24491,21.92929,21.92929,0,0,0,2.60763-.93168c1.73389-.734,3.43966-1.59974,5.12724-2.49961,3.36691-1.82431,6.69236-3.766,9.97448-5.78168,6.569-4.02872,13.02286-8.26679,19.48266-12.50158,3.23247-2.11506,6.47418-4.21772,9.753-6.27688,1.64512-1.02408,3.2872-2.04488,5.0218-2.97a11.37716,11.37716,0,0,1,1.38969-.632,2.42062,2.42062,0,0,1,.442-.11579l.32865-.0669a2.6151,2.6151,0,0,0,.62607-.16795,5.0267,5.0267,0,0,0,2.165-1.4884,8.14076,8.14076,0,0,0,1.83916-5.06964,16.208,16.208,0,0,0-.883-5.57279c-1.1353-3.65586-3.468-6.84084-4.91256-10.4436a.09238.09238,0,0,1,.04514-.12257.09665.09665,0,0,1,.12316.047c1.54594,3.53048,3.97573,6.61489,5.27431,10.33788a16.84491,16.84491,0,0,1,1.10046,5.77465,8.76853,8.76853,0,0,1-1.90454,5.643,5.95882,5.95882,0,0,1-2.51646,1.80559,3.4538,3.4538,0,0,1-.76373.22315l-.37976.08374a1.624,1.624,0,0,0-.25438.07837,10.66549,10.66549,0,0,0-1.23016.59741c-1.654.92982-3.27294,1.985-4.883,3.03833-3.22042,2.11622-6.40049,4.30754-9.60092,6.46915-6.402,4.32321-12.80573,8.65555-19.35166,12.79468-3.27879,2.06009-6.57839,4.09889-10.00677,5.94962-1.71734.92163-3.45615,1.81261-5.27753,2.59038a23.67034,23.67034,0,0,1-2.842,1.02174,9.0962,9.0962,0,0,1-1.58138.3076,3.46354,3.46354,0,0,1-1.94442-.27907.88275.88275,0,0,1-.49555-.70642l-.00368-.03813Q446.852,229.50154,445.4725,217.684c-.45514-3.93726-.91444-7.87382-1.44607-11.79493q-.38736-2.94312-.85572-5.86378c-.1714-.96584-.30613-1.95179-.51572-2.89657l-.29462-1.426-.37233-1.33144.92777.57754c-4.58281.42011-9.15339.67765-13.75268.76022-2.2995.02807-4.60357-.00982-6.91388-.15836-1.15683-.09614-2.3136-.19883-3.47493-.38877a16.14615,16.14615,0,0,1-3.49527-.92466.69369.69369,0,0,1-.43789-.62175l-.00059-.02386-.48362-14.9343-.2418-7.4675-.12088-3.73375-.06047-1.86687c-.00427-.29918-.03485-.629-.00924-.98408a7.09485,7.09485,0,0,1,.13509-.99227,8.85441,8.85441,0,0,1,1.62752-3.56229,16.43,16.43,0,0,1,1.29086-1.42314c.4266-.43836.84718-.8994,1.26677-1.3546,1.67407-1.83577,3.32264-3.70264,4.96765-5.57092,3.27837-3.748,6.51248-7.53651,9.747-11.32312a.30235.30235,0,0,1,.42619-.03368.3118.3118,0,0,1,.09562.15157,27.04232,27.04232,0,0,0,1.9064,4.97795,12.55635,12.55635,0,0,0,1.41261,2.23038,5.07068,5.07068,0,0,0,1.96963,1.58266,2.68146,2.68146,0,0,0,2.34991-.20841,19.52355,19.52355,0,0,0,2.10757-1.59156c1.394-1.13192,2.7599-2.29471,4.04088-3.54288a28.64158,28.64158,0,0,0,6.36646-8.4869,17.22917,17.22917,0,0,0,1.47039-10.25109.5363.5363,0,0,1,.40064-.59905q7.76139-1.91436,15.54891-3.72065c2.60307-.58783,5.19286-1.19625,7.84779-1.66641a10.65483,10.65483,0,0,1,2.11354-.215c.72244.01006,1.389.07321,2.07178.13684,1.34642.145,2.67435.341,4.00007.54338,5.28413.87227,10.51868,1.92723,15.70844,3.19855q3.89661.93053,7.76036,2.02056a60.615,60.615,0,0,1,7.67486,2.59926.72514.72514,0,0,1,.375.95461l-.00222.00515-.0048.01052L507.28429,153.8849l-.00784.01755a.54019.54019,0,0,1-.46619.31953,31.00172,31.00172,0,0,0-7.09885,1.00349,5.36866,5.36866,0,0,0-1.51507.70011,1.077,1.077,0,0,0-.41684.48841,3.60293,3.60293,0,0,0-.12011.79485,21.923,21.923,0,0,0,.17309,3.581c.26714,2.40792.711,4.80531,1.2104,7.187.51251,2.37985,1.08244,4.75057,1.74255,7.09814l.00409.02714-.00082.037a.0923.0923,0,0,1-.18456,0Z"/><path d="M420.393 175.11994q6.16878 4.02976 12.09639 8.43778c1.971 1.47647 3.90807 3.00323 5.79758 4.60555a34.00176 34.00176 0 015.30548 5.38893l-1.54214 1.01449a32.79144 32.79144 0 00-4.69584-5.38c-1.75425-1.68747-3.57732-3.32019-5.44156-4.90824Q426.31083 179.52338 420.393 175.11994zM497.17589 156.88557a30.025 30.025 0 01-4.31609-2.31319 30.824 30.824 0 01-3.85608-2.91949 23.13476 23.13476 0 01-3.23166-3.56533 18.32514 18.32514 0 01-2.24733-4.20135 18.08692 18.08692 0 002.60838 3.9141 22.47205 22.47205 0 003.45434 3.13773 29.67173 29.67173 0 003.96229 2.43389 28.644 28.644 0 004.23479 1.771zM506.329 154.49145c-2.05518-1.28443-3.9934-2.65-5.899-4.09679a65.27554 65.27554 0 01-5.45864-4.63035 34.1112 34.1112 0 01-4.69748-5.39712 12.0386 12.0386 0 01-2.42955-6.61534 11.8161 11.8161 0 002.80312 6.34424 33.43827 33.43827 0 004.93993 4.981 64.1815 64.1815 0 005.64659 4.19059c1.95062 1.29144 3.97106 2.52371 6.00471 3.61749zM486.34913 170.302a63.6619 63.6619 0 01-4.32345 8.32737 68.25427 68.25427 0 01-5.44893 7.67031 42.22083 42.22083 0 01-6.79587 6.53932 19.835 19.835 0 01-8.51837 3.87855 19.29164 19.29164 0 004.272-1.82337 24.59228 24.59228 0 003.81182-2.61681 46.39017 46.39017 0 006.52348-6.56926 81.71257 81.71257 0 005.5608-7.46q1.31226-1.92769 2.52383-3.926C484.79 173.00628 485.57253 171.65846 486.34913 170.302zM426.1303 194.85066a41.67211 41.67211 0 011.75688 5.9936 34.01679 34.01679 0 01.80876 6.231 27.334 27.334 0 01-.079 3.17516c-.07743 1.021-.14948 2.043-.19608 3.07786l-.32854 6.19593-.59168 12.41083c-.20573 4.13725-.50485 8.27053-.81625 12.40381l-.93788 12.40076-.2338 3.10312c-.05509.53075-.05947 1.00794-.14222 1.5836a1.87732 1.87732 0 01-.25409.80818c-.1231.23649-.248.47017-.37947.694l-3.16744 5.35665c-1.04279 1.78734-2.09009 3.57281-3.03394 5.40507a29.34286 29.34286 0 00-1.27846 2.78406 25.45139 25.45139 0 00-.88016 2.92066 35.945 35.945 0 00-.91941 6.04389 22.92984 22.92984 0 00.00217 3.017 9.93006 9.93006 0 00.53362 2.83528l-1.2801-.1883c3.0192-4.20041 6.07635-8.37275 9.13508-12.54369q4.57476-6.26658 9.20964-12.48849l-.14918.29053 3.53042-10.93389L440.018 244.508l3.58428-10.91751 1.76787-5.46519a54.68159 54.68159 0 001.55922-5.48531l.18345-.02058a42.75406 42.75406 0 01-1.15408 5.67173q-.68209 2.79716-1.43928 5.57186c-1.01753 3.697-2.00413 7.40364-3.095 11.07821l-3.24726 11.031-3.38592 10.98839-.04725.15345-.10211.13754q-4.626 6.22833-9.33771 12.39281-4.68546 6.18412-9.41221 12.33738l-.861 1.1139-.41935-1.302a15.80793 15.80793 0 01-.38631-6.45839 38.205 38.205 0 011.22033-6.18565 26.29352 26.29352 0 011.03093-2.98873 30.0108 30.0108 0 011.42424-2.80885c1.0128-1.82056 2.06582-3.60837 3.14365-5.38028 1.06975-1.77424 2.18757-3.52627 3.18984-5.32484.12865-.22432.2452-.44865.35911-.67274a1.38294 1.38294 0 00.19591-.66057c.05725-.45123.07772-1.01192.11064-1.513l.14163-3.10077.35789-12.42627c.16339-8.28924.64567-16.56328 1.22724-24.83685.15134-2.06851.26959-4.13842.48391-6.20787.09351-1.03227.21415-2.073.34122-3.11364a26.2471 26.2471 0 00.21234-3.029 46.38477 46.38477 0 00-1.70834-12.175z"/><path d="M517.31046,129.48734l.00924-.00023.006-.00024.01076.00211c3.351.69215,6.6647,1.567,9.93893,2.593,1.63214.52864,3.2513,1.10712,4.84169,1.77728a22.93247,22.93247,0,0,1,4.607,2.46874,5.30265,5.30265,0,0,1,1.84734,2.1043,2.48287,2.48287,0,0,1,.13439,1.5939l-.34421,1.23951c-.45332,1.65846-1.00864,3.298-1.59986,4.919a57.84841,57.84841,0,0,1-4.49643,9.30771,91.80419,91.80419,0,0,1-12.56953,16.28352c-1.15192,1.26969-2.37869,2.4657-3.59949,3.66638l-1.81249,1.81892-1.87869,1.74969c-2.4809,2.35926-5.08835,4.57467-7.64317,6.8516l.01451-.01333-.009.00912-.02281.02316-.03871.02128a7.08064,7.08064,0,0,0-2.60464,2.25471,3.58978,3.58978,0,0,0-.46339,1.62173l-.23473,1.7974a26.14229,26.14229,0,0,1-.71812,3.58943,8.92832,8.92832,0,0,1-.678,1.75038,3.24576,3.24576,0,0,1-1.36092,1.49028l.17813-.16538a8.67468,8.67468,0,0,1-.76759,1.13332,7.53494,7.53494,0,0,1-.94128.99928,4.1696,4.1696,0,0,1-2.62078,1.14057l.46689-.39765a8.08836,8.08836,0,0,1-.52069,1.77868,5.11966,5.11966,0,0,1-1.02291,1.61215,3.224,3.224,0,0,1-1.797.95718,4.02647,4.02647,0,0,1-1.98185-.24749l.7573-.44022a19.43251,19.43251,0,0,1-.72782,3.15457,8.79621,8.79621,0,0,1-.6669,1.54735,2.71,2.71,0,0,1-1.47144,1.34384,1.72661,1.72661,0,0,1-1.1863-.11321,2.93159,2.93159,0,0,1-.81543-.57426,4.48491,4.48491,0,0,1-.57-.67976,7.8171,7.8171,0,0,1-.4794-.70946,10.16133,10.16133,0,0,1-1.06058-3.16721,27.69576,27.69576,0,0,1-.25987-6.41068,46.83973,46.83973,0,0,1,.82127-6.307,34.339,34.339,0,0,1,1.8036-6.14168,13.18168,13.18168,0,0,1,.726-1.491,6.653,6.653,0,0,1,.48935-.73145,5.24551,5.24551,0,0,1,.60525-.65824,29.70381,29.70381,0,0,1,2.51412-2.007c1.70887-1.24138,3.45247-2.40347,5.19034-3.56533l2.60523-1.72746,1.26969-.88022c.20584-.14877.41052-.29988.5966-.45123.09508-.07438.18268-.152.25485-.21917a.95156.95156,0,0,0,.07532-.07649c-.00363.00584.02046-.0248-.00141.0138a.34766.34766,0,0,0-.04432.13122c-.0069.04749.00222.10877.00011.06714l.02667.18128a1.03125,1.03125,0,0,1,.028-.49824l.06164-.14573a2.51068,2.51068,0,0,1,.12234-.24982l.23836-.42666.483-.8035.975-1.57167,1.92652-3.138c1.25729-2.10477,2.48628-4.22521,3.6258-6.39149a58.76912,58.76912,0,0,0,3.0423-6.668,21.7848,21.7848,0,0,0,1.61471-7.089l.06.11532-2.42885-1.85214-.00585-.00444-.00269-.00281-.00889-.00935.09789-.098.00936.00912-.00819-.007,2.518,1.72887.05778.03953.00245.076a21.82662,21.82662,0,0,1-1.29413,7.30961,59.53134,59.53134,0,0,1-2.84827,6.85745c-1.06922,2.23131-2.243,4.40859-3.47445,6.54845l-1.86887,3.1927-.93753,1.58478-.45145.78782-.20386.38292a1.48169,1.48169,0,0,0-.078.16561l-.02889.0662a.34979.34979,0,0,0-.01146-.27134l.02667.18152a.8041.8041,0,0,1-.02.16187,1.01084,1.01084,0,0,1-.07638.22362,1.24525,1.24525,0,0,1-.11473.17286,1.86531,1.86531,0,0,1-.189.2117c-.11578.11391-.22338.21052-.33145.29987-.21567.18269-.4283.3462-.64245.50807l-1.28665.93262-2.58733,1.7836c-1.73074,1.16817-3.46,2.3326-5.12672,3.55527a28.49839,28.49839,0,0,0-2.37517,1.91015,6.632,6.632,0,0,0-1.46513,2.39529,33.52592,33.52592,0,0,0-1.69635,5.87618,45.39859,45.39859,0,0,0-.86829,6.10494,26.41024,26.41024,0,0,0,.169,6.08857,8.92985,8.92985,0,0,0,.87659,2.76371,6.606,6.606,0,0,0,.81742,1.11788c.313.31157.61859.44841.78642.39017a1.63185,1.63185,0,0,0,.75414-.75695,7.632,7.632,0,0,0,.59578-1.31577,18.37127,18.37127,0,0,0,.74-2.93189l.11053-.64607.64689.20561a2.94616,2.94616,0,0,0,1.41355.218,2.14593,2.14593,0,0,0,1.212-.62152,5.799,5.799,0,0,0,1.35542-2.80581l.087-.40093.38.00328a3.27942,3.27942,0,0,0,2.06009-.85309,7.71285,7.71285,0,0,0,1.58454-1.85471l.0752-.1214.10327-.04421a2.51853,2.51853,0,0,0,1.04748-1.12888,8.24872,8.24872,0,0,0,.66747-1.59974,25.52013,25.52013,0,0,0,.79332-3.47948l.28234-1.78337a4.31444,4.31444,0,0,1,.5621-1.81191,7.52964,7.52964,0,0,1,2.82581-2.40979l-.06117.044.00912-.00889.00632-.00632.00853-.00748,3.87211-3.34966c1.30326-1.10338,2.4988-2.32442,3.74416-3.49025l1.84922-1.76886,1.7815-1.83647c1.18641-1.22548,2.35821-2.46406,3.46322-3.76252a106.09884,106.09884,0,0,0,12.045-16.41756,67.16626,67.16626,0,0,0,4.47409-9.10514c.59929-1.58173,1.16244-3.174,1.63155-4.80742l.35719-1.22524a1.41582,1.41582,0,0,0-.07871-.9097,4.66826,4.66826,0,0,0-1.48045-1.71389,22.11415,22.11415,0,0,0-4.33678-2.49424c-1.53811-.706-3.12171-1.32887-4.72356-1.90383-3.196-1.17776-6.46506-2.16933-9.75426-3.09423l.01649.00187-.00924-.00023Z"/><polygon points="489.376 204.692 489.838 198.213 490.299 204.692 489.376 204.692"/><polygon points="494.028 201.037 494.49 197.382 494.951 201.037 494.028 201.037"/><polygon points="498.016 198.047 498.477 195.887 498.939 198.047 498.016 198.047"/><path d="M485.66762,209.35573,425.565,287.09712a16.50654,16.50654,0,0,0-1.84916-1.82991c-3.98573-2.07927-2.654,3.82287-2.654,3.82287-3.7462-1.581-1.91623,4.2348-1.91623,4.2348-2.62522-.94853-2.55815,1.03484-2.15576,2.61563a3.256,3.256,0,0,0,.70906,1.33168L312.43074,433.4301,297.4841,452.76481l-4.37859-3.38194,14.94664-19.34453L483.78963,202.735a12.43208,12.43208,0,0,0,1.39893,5.94986C485.36108,208.94357,485.52388,209.16392,485.66762,209.35573Z"/><rect width="24.441" height="4.614" x="290.546" y="439.097" transform="rotate(-52.298 302.768 441.407)"/><path d="M241.00247,458.04754c3.08353.48585,6.10437.94713,9.13362,1.374l8.92982,1.24092c2.94447.40491,5.86571.78268,8.746,1.23577l8.671,1.36069-.32421.01333q8.42242-2.24874,16.89638-4.29632l16.97719-3.98076c5.65583-1.3394,11.3016-2.71809,16.91714-4.21515,5.62724-1.45144,11.23324-2.98569,16.83755-4.52649l.10023,1.01426q-10.88432-.35157-21.76163-.83672l-21.752-1.01823.27134-.02339q-7.31665,1.69822-14.6263,3.26569c-4.86753,1.06712-9.79624,2.04-14.737,3.06054l-14.99985,3.06569C251.24579,455.83214,246.13545,456.91352,241.00247,458.04754Zm-.1845.00538c4.78637-1.13565,9.59519-2.32417,14.47846-3.54311l14.75793-3.74357c4.97853-1.24887,9.969-2.5457,15.02079-3.74825q7.55437-1.84034,15.13149-3.54381l.13889-.03135.1328.00795,21.73678,1.30291q10.86653.68665,21.72707,1.48442l3.33551.24842-3.23522.76584c-5.656,1.33893-11.31031,2.68441-16.94345,4.11269-5.64483,1.38244-11.25932,2.88347-16.8638,4.4238l-16.80381,4.65842q-8.41472,2.27927-16.88462,4.34263l-.16942.0414-.15508-.02807-9.05023-1.62968c-3.02674-.54386-6.01255-1.16279-8.97514-1.7546l-8.79134-1.74968C246.52778,459.09946,243.64156,458.56379,240.818,458.05292Z"/><polygon points="264.686 455.228 285.037 458.235 323.831 449.549 298.86 448.382 264.686 455.228"/><path d="M252.86635,370.9299c-.7104,9.013-1.59612,18.0056-2.52582,26.99308-.98969,8.98047-1.90015,17.97028-3.07785,26.92876l-1.82144,13.43163-.45894,3.35738a12.9789,12.9789,0,0,1-.8,3.38077,11.52447,11.52447,0,0,1-4.26258,5.38964,11.64681,11.64681,0,0,1-6.53067,2.0533l-6.77652.0407c-4.51736.004-9.03467.12258-13.552.18059-4.51731.07438-9.03467.18643-13.552.22713l-6.77745.08093a12.02186,12.02186,0,0,1-11.29476-7.78656,12.49323,12.49323,0,0,1-.52122-1.756c-.10959-.60818-.20766-1.20957-.265-1.75366l-.41543-3.36253-1.59115-13.45829c-1.99956-17.95859-3.87895-35.93121-5.38887-53.94687l.18333-.02129c2.67341,17.88,4.97741,35.80326,7.16119,53.74033l1.54635,13.46344.36894,3.3679c.05351.58058.13561,1.094.21649,1.59928a10.66148,10.66148,0,0,0,.42192,1.49331,10.17558,10.17558,0,0,0,3.71679,4.88111,10.42932,10.42932,0,0,0,5.86425,1.91132l6.77459.083c4.51731.0407,9.03467.15251,13.552.22689,4.51736.058,9.03467.17661,13.552.18059l6.77547.03883a10.73049,10.73049,0,0,0,6.189-1.97425,10.612,10.612,0,0,0,3.89357-5.1618,12.12682,12.12682,0,0,0,.62449-3.22124l.32544-3.373,1.31606-13.49035c.914-8.98935,2.09518-17.94759,3.19721-26.915,1.162-8.96035,2.36792-17.91555,3.74919-26.8504Z"/><path d="M259.80438,371.96544H166.31606a5.09186,5.09186,0,0,1,0-10.18372h93.48832a5.09186,5.09186,0,0,1,0,10.18372Z"/><path d="M179.42647 423.09083L191.14228 409.691c1.92564-2.24792 3.89105-4.45678 5.78489-6.726 1.91266-2.2519 3.83375-4.49561 5.67963-6.798 3.75574-4.552 7.37194-9.20923 10.78266-14.00729 1.68-2.41494 3.32247-4.85818 4.82332-7.39078a56.225 56.225 0 004.01252-7.8958A39.13281 39.13281 0 01219.32 375.349a78.629 78.629 0 01-4.27058 7.90188c-1.54291 2.56722-3.26932 5.00976-4.99643 7.44739-1.75623 2.41727-3.61006 4.75642-5.4784 7.08154-3.80387 4.59455-7.78405 9.03379-11.98148 13.25713A160.08346 160.08346 0 01179.42647 423.09083zM506.34371 291.313a225.77549 225.77549 0 00.33544-26.70279 353.04241 353.04241 0 00-6.22775-52.91671c1.35085 8.77626 2.44312 17.59087 3.21913 26.42491.83368 8.83356 1.39893 17.68677 1.6001 26.53975.01918 2.21307.09579 4.42637.07661 6.63968l-.02878 6.63967-.22993 6.63032c-.05743 2.21307-.28737 4.41678-.42152 6.6205-.115 2.20371-.40233 4.39783-.64186 6.59195l-.72818 6.6205c-.56537 4.436-.74736 8.89134-1.03484 13.33689-.24912 8.90093-.27789 17.80187.01918 26.69321.08632 4.44555.33544 8.88175.50783 13.31771.24912 4.436.45988 8.88175.81438 13.30836.61321 8.86257 1.40852 17.706 2.25155 26.54934.91975 8.82421 1.87786 17.63883 3.07551 26.42467a124.49025 124.49025 0 01-16.82445-.86221s-3.98579-46.63164-4.42649-84.295c-.4407-37.654-9.30332-58.48341-9.30332-58.48341a79.55631 79.55631 0 00-2.63482-8.7669 80.54111 80.54111 0 00-3.23844-7.90446c.28748.13427.57491.27789.86233.41216.9294.43111 1.86834.82385 2.80727 1.22642.94853.37356 1.897.74736 2.86476 1.08256-1.77249-1.02525-3.57375-1.96419-5.35583-2.94148l-5.33672-2.94125-5.2984-2.98943c-.891-.49824-1.7629-1.01566-2.63482-1.54244-.891-.49824-1.75331-1.02525-2.63482-1.55226a45.76785 45.76785 0 004.896 3.68884c1.68623 1.14969 3.44919 2.19412 5.22168 3.2 1.47554.8049 2.9606 1.57144 4.47444 2.29a90.64 90.64 0 006.00735 16.73826l-9.744 35.45027c-3.545 35-22.60192 91.70121-26.147 103.22737-3.545 11.51657-31.8957-4.87666-31.8957-4.87666C426.389 367.78 439.89842 294.86755 445.80039 260.45187c2.357-2.6444 4.61812-5.33677 6.88885-8.04807 2.2612-2.71155 4.45526-5.47081 6.68769-8.21112 2.17488-2.77844 4.38812-5.53794 6.53435-8.34515 2.14617-2.79762 4.28275-5.61443 6.33313-8.48877-2.34739 2.63482-4.62771 5.33653-6.88885 8.04807s-4.46485 5.4804-6.69722 8.21089c-2.17494 2.77867-4.3786 5.53817-6.52477 8.34538s-4.2828 5.60484-6.33318 8.48877c.757-4.40719 1.37969-8.17275 1.87792-11.18113a88.12086 88.12086 0 0011.34412-13.94063 77.99513 77.99513 0 00-6.03618 6.678 79.21373 79.21373 0 00-5.30794 7.26259c.84315-5.126 1.29344-8.02913 1.29344-8.02913l60.63917-36.552c8.41217 13.7011 10.85541 48.24122 6.41945 65.51583-4.42661 17.27509-2.21331 38.10428-2.21331 38.10428 6.199 30.12333 6.64927 112.97156 6.64927 112.97156-1.87787 1.87787-6.52483 2.58687-11.52616 2.74967-.7856-8.8338-1.57121-17.658-2.18453-26.50139-.66105-8.853-1.29332-17.706-1.73413-26.55894-.95812-17.71555-1.57132-35.45987-.91016-53.15623.249-4.417.40245-8.84339.93893-13.22205l.68034-6.62072C505.97015 295.75853 506.23833 293.54522 506.34371 291.313z"/><path d="M413.11381 415.552a59.05337 59.05337 0 01-9.32221 17.13755 44.84881 44.84881 0 01-6.93885 7.02166 28.86959 28.86959 0 01-8.67708 4.83128c-1.60109.52864-3.18633.87226-4.758 1.25846l-4.73286 1.12513c-1.57735.37286-3.151.74829-4.71216 1.15624a18.17152 18.17152 0 00-4.44427 1.66922 2.85933 2.85933 0 00-1.31577 1.70594 7.56785 7.56785 0 00-.02982 2.327c.0369.39672.1014.79789.1507 1.19671a1.50148 1.50148 0 00.42988.91227 5.40274 5.40274 0 001.96313 1.14127 21.97655 21.97655 0 004.65607 1.08513c1.592.22059 3.19592.3731 4.80427.477a188.78619 188.78619 0 0019.35248-.06948c3.22247-.16163 6.44132-.39789 9.64121-.73893a66.71865 66.71865 0 009.41684-1.51367 10.75829 10.75829 0 001.05209-.34315 2.16392 2.16392 0 00.7339-.40537 4.271 4.271 0 001.06245-1.63133 9.37858 9.37858 0 00-.0386-4.34544c-.58128-3.10989-1.39945-6.43406-1.07572-9.8291a19.04589 19.04589 0 011.19157-4.86941 42.275 42.275 0 011.95523-4.51619 64.92013 64.92013 0 015.02029-8.37322l.15444.10128a83.83424 83.83424 0 00-4.32655 8.66257 41.21026 41.21026 0 00-1.65694 4.50427 20.11323 20.11323 0 00-.89864 4.59853c-.18947 3.11177.66093 6.17349 1.38285 9.3835a10.47144 10.47144 0 01.09081 5.27011 6.19067 6.19067 0 01-1.51805 2.43107 3.96939 3.96939 0 01-1.34109.82409 12.58479 12.58479 0 01-1.25033.4318 39.3989 39.3989 0 01-4.89128.97122q-2.43734.35508-4.876.563c-3.25217.28351-6.50488.45894-9.75893.55929a138.91885 138.91885 0 01-19.51073-.6587 42.05248 42.05248 0 01-9.60706-1.964 5.95862 5.95862 0 01-2.17535-1.33262 2.13337 2.13337 0 01-.56683-1.2498c-.04357-.40608-.10141-.80678-.133-1.2173a9.19021 9.19021 0 01.04163-2.51435 3.45134 3.45134 0 011.537-2.07085 20.01364 20.01364 0 014.56321-1.90009c1.55063-.49824 3.10774-.96186 4.66263-1.4215l4.66216-1.37893c1.55518-.46362 3.11575-.91578 4.57432-1.458a37.42229 37.42229 0 0015.03892-11.30371 66.23258 66.23258 0 005.6408-7.79264 76.73322 76.73322 0 004.60421-8.51193zM503.93 424.012a15.17491 15.17491 0 01.45882 3.64066c.012.61356.01088 1.22852-.035 1.84114a16.58291 16.58291 0 01-.18269 1.8353 31.25318 31.25318 0 01-1.91553 7.12224 41.707 41.707 0 01-7.98211 12.31375c-.81543.93472-1.66793 1.72957-2.42313 2.64768a19.65818 19.65818 0 00-2.07014 2.8423 7.09883 7.09883 0 00-1.05449 3.20324 3.4355 3.4355 0 001.50945 2.80674 8.77166 8.77166 0 003.21329 1.356 21.12265 21.12265 0 003.54171.4828 67.93951 67.93951 0 007.20119-.16421 14.64724 14.64724 0 006.58751-1.98477 10.70478 10.70478 0 001.37261-.99695c.44877-.37122.787-.74455 1.28162-1.2091a13.4212 13.4212 0 013.13469-2.22594 19.52289 19.52289 0 013.52674-1.38243c1.17963-.35672 2.393-.62526 3.37095-1.01941l.3345-.15578a.76.76 0 01.17239-.12351 1.6582 1.6582 0 01.16468-.19438c.05286-.07579.09859-.1738.15321-.25637a4.08058 4.08058 0 00.38374-1.3911 10.47624 10.47624 0 00-.20023-3.283 15.27158 15.27158 0 00-1.024-3.24253 16.87761 16.87761 0 00-.7828-1.5146c-.1338-.21731-.29883-.58876-.44046-.88139l-.21778-.46619-.15029-.46105a35.13381 35.13381 0 01-1.31565-7.31475 105.87429 105.87429 0 01-.17275-14.5577h.18468c.34935 4.82262.72946 9.64431 1.42138 14.38717a33.86069 33.86069 0 001.551 6.86868l.14689.39485.1862.345c.138.24281.20783.43087.3938.72748a18.68464 18.68464 0 01.91636 1.68535 17.19694 17.19694 0 011.23179 3.6327 11.915 11.915 0 01.22491 3.92229 5.97728 5.97728 0 01-.60537 2.07272 5.67952 5.67952 0 01-.322.51391c-.14281.16351-.29134.32374-.44374.47719-.18643.1359-.38128.26549-.57835.38432l-.49228.21473c-1.28232.47041-2.45061.67719-3.59.99555a17.7793 17.7793 0 00-3.2458 1.17261 12.57148 12.57148 0 00-2.81365 1.87389c-.40514.341-.91063.83952-1.41273 1.214a12.197 12.197 0 01-1.60734 1.05917 15.05853 15.05853 0 01-7.279 1.72886l-3.64229-.03742c-1.21694-.02526-2.43552-.07532-3.65106-.18292a25.936 25.936 0 01-3.62533-.56117 9.90929 9.90929 0 01-3.43375-1.41775 4.21817 4.21817 0 01-1.91717-3.26967 7.93917 7.93917 0 01.90244-3.70193 31.9642 31.9642 0 014.25269-6.0308 53.37346 53.37346 0 007.81791-11.859 36.53561 36.53561 0 002.26324-6.7302 22.49539 22.49539 0 00.5469-7.10353zM425.60166 287.06625a5.89833 5.89833 0 011.16132 1.18992 3.47327 3.47327 0 01.67935 1.62992 1.8956 1.8956 0 01-.77046 1.75413 3.98662 3.98662 0 01-1.65641.57052l.15176-.30666a2.87218 2.87218 0 01.05473 1.48606 1.64382 1.64382 0 01-1.01911 1.08957 5.57835 5.57835 0 01-2.90306.19088l.51713-.5497a6.99193 6.99193 0 01.28941 1.97588 2.78478 2.78478 0 01-.76051 2.03623 1.8456 1.8456 0 01-1.07344.484 2.78529 2.78529 0 01-1.06069-.102 2.65074 2.65074 0 01-1.5491-1.21144l.07257-.06246a3.0047 3.0047 0 001.6.65 1.62342 1.62342 0 001.34659-.42081 2.297 2.297 0 00.40467-1.4049 7.25959 7.25959 0 00-.12806-1.71576l-.13579-.67929.653.12935a6.89936 6.89936 0 002.589.27111 1.06137 1.06137 0 00.87858-.75859 1.69512 1.69512 0 00-.18765-1.22992l-.11211-.1993.264-.1076a3.74578 3.74578 0 001.2542-.7525 1.41955 1.41955 0 00.45824-1.08 3.84873 3.84873 0 00-.38076-1.38547c-.20473-.47345-.45572-.94525-.71081-1.42946z"/><path d="M419.14689 293.32605a1.77113 1.77113 0 011.29548.0297.69328.69328 0 11-.34807.85426A1.772 1.772 0 01419.14689 293.32605zM421.05751 289.08938a6.0366 6.0366 0 012.22757 1.084 5.96537 5.96537 0 011.67658 1.8236 5.96864 5.96864 0 01-2.22757-1.084A6.03323 6.03323 0 01421.05751 289.08938z"/></svg>